<svg width="100" height="100" viewBox="0 0 100 100" fill="none" xmlns="http://www.w3.org/2000/svg">
<path d="M49.082 6.62111C47.7539 7.10939 46.6211 7.91017 45.3711 9.21877C44.082 10.6055 43.3203 11.7969 41.6992 15.0391C40.0391 18.3789 38.9844 19.8438 37.4609 20.9961C35.9961 22.0899 35.3906 22.4219 30.6055 24.6485C26.1328 26.7188 24.1602 27.8711 22.5781 29.3164L21.3672 30.4297L20.8008 29.961C16.4648 26.4844 9.60937 29.2383 7.20703 35.4297C5.99609 38.5547 4.51172 44.8828 3.80859 49.9024C2.79297 57.2656 2.91016 64.668 4.10156 68.2813C5.01953 71.0352 6.99219 73.3985 9.33594 74.5508C10.625 75.1953 10.9375 75.2735 12.3047 75.2735C13.6719 75.2735 14.0039 75.1953 15.2734 74.5508L16.7188 73.8477L18.418 75.4883C21.2695 78.2422 24.7852 80.3516 28.6523 81.6211C31.1523 82.461 32.9492 82.7735 36.0352 82.9297C40.5469 83.1445 41.6992 83.5547 46.9141 86.836C52.4023 90.2539 58.1055 92.7149 62.3828 93.457C64.668 93.8477 68.0664 93.8477 69.707 93.4375C72.4219 92.7539 74.4141 91.3672 75.3125 89.5313C75.7812 88.5742 75.8203 88.3008 75.7422 86.8555C75.6641 85.332 75.332 84.3555 74.2773 82.4024C74.2383 82.3438 75.1172 82.2266 76.2109 82.168C81.582 81.836 85.4492 79.8633 87.0312 76.6406C87.5195 75.6445 87.5977 75.2539 87.5977 73.8281C87.5977 72.4024 87.5195 72.0117 87.0312 71.0156C86.4062 69.7461 84.9023 68.1445 83.3789 67.1094L82.3828 66.4453L82.9492 66.3477C83.2422 66.2891 84.0234 66.1719 84.668 66.1133C86.582 65.8985 89.2969 65.1172 90.9375 64.3164C92.8516 63.3985 95 61.3672 95.7617 59.7656C96.875 57.461 97.207 54.375 96.5625 52.3828C95.625 49.4922 92.3242 47.2461 87.0312 45.918L84.9023 45.3711L85.7617 44.7656C86.25 44.4531 86.9727 43.8086 87.3828 43.3594C89.8242 40.6446 90.0391 35.7813 87.8711 32.3828C86.4844 30.2344 83.8281 28.4961 80.918 27.8516C78.6914 27.3633 75.8203 27.4805 66.9336 28.418C57.793 29.375 54.4336 29.6875 54.3359 29.6094C54.3164 29.5703 55 28.5938 55.8789 27.4219C60.1562 21.6797 61.1914 16.2305 58.9258 11.4258C58.0273 9.53127 56.3867 7.79298 54.7266 6.9922C53.6133 6.44533 53.1836 6.34767 51.7578 6.28908C50.5078 6.25002 49.8437 6.32814 49.082 6.62111ZM53.2812 10.1758C54.9023 10.9766 56.3281 13.3985 56.5625 15.8008C56.7187 17.5 56.1914 19.961 55.2734 21.836C54.8242 22.7344 53.5156 24.7266 52.3437 26.2695C51.1719 27.8125 49.9023 29.6485 49.5117 30.3711C48.5156 32.1289 47.6172 34.7656 46.8945 37.9297C46.1133 41.4453 45.5078 42.6172 43.4766 44.6289C40.9375 47.1485 38.6523 48.0469 34.6484 48.0469C32.7539 48.0469 32.4414 48.086 32.0703 48.4375C31.1328 49.3164 31.3867 50.8008 32.5391 51.2891C33.418 51.6602 36.5625 51.6406 38.4375 51.25C42.4023 50.4492 45.8203 48.1055 48.125 44.6485C49.1211 43.125 49.7461 41.543 50.2148 39.2969C50.6836 36.9727 51.0547 35.5664 51.6016 34.2188L51.9922 33.2031H53.2031C54.7266 33.2031 59.043 32.793 67.1875 31.8946C75.1367 31.0156 79.5312 30.8985 81.2891 31.5625C84.3359 32.7344 85.8203 34.7656 85.8203 37.8125C85.8008 41.211 83.6914 42.7735 77.4023 44.0235C75.3711 44.4336 74.3164 44.5313 71.7383 44.5313C67.1875 44.5313 62.3633 45.0977 61.3281 45.7617C60.4687 46.2891 60.3125 47.5586 60.9961 48.3594C61.5625 49.0235 62.0898 49.043 64.6484 48.5352C66.25 48.2031 67.4023 48.1446 72.9492 48.1446C79.5508 48.1446 81.0742 48.2617 84.9219 49.043C89.2578 49.9219 92.1484 51.3867 93.0859 53.1641C93.457 53.8672 93.4375 55.7422 93.0469 57.0313C92.4414 59.043 91.2695 60.293 89.0039 61.3281C86.3867 62.5 83.5938 62.8906 77.8906 62.8906C73.9844 62.8906 73.75 62.8711 71.7578 62.3047C67.793 61.1914 62.3828 60.332 57.7148 60.0391C55.5664 59.9219 55.5469 59.9219 54.9219 60.4492C54.4336 60.8594 54.2969 61.1133 54.2969 61.6797C54.3164 63.0664 54.8828 63.3789 57.6172 63.5547C68.6914 64.2774 79.8047 67.7735 83.1836 71.6016C85.4102 74.1406 83.6914 76.9727 79.1797 78.2227C77.7148 78.6328 73.3398 78.8281 71.6797 78.5547C70.6445 78.3789 69.9805 78.086 68.0664 76.9336C65.0977 75.1367 61.8164 73.5547 57.6562 71.9336C53.8867 70.4688 53.1055 70.3516 52.4219 71.1524C51.8555 71.8164 51.7969 72.832 52.3047 73.3985C52.4805 73.6328 54.082 74.3555 55.9961 75.0977C62.8125 77.6953 67.6562 80.3516 69.9023 82.7149C72.2461 85.1953 72.9102 87.4024 71.6797 88.6524C70.7031 89.6094 69.1602 90.0977 66.6602 90.1953C61.8164 90.3711 55.8398 88.2617 48.8477 83.8867C43.1836 80.332 41.6602 79.7852 36.8555 79.4727C35.1562 79.375 33.1445 79.1602 32.3828 79.0039C26.1719 77.6953 20.0977 73.5352 17.832 69.043C17.1484 67.7149 16.8359 66.543 16.6211 64.6094C16.4258 62.8516 16.4648 62.1289 16.9141 59.2383C17.0312 58.4961 16.9727 58.3594 16.4453 57.8125C16.0156 57.3828 15.6641 57.2266 15.1953 57.2266C13.9062 57.2461 13.418 58.1055 13.1055 60.9766C12.8125 63.5352 13.1055 66.3477 13.8867 68.5547C14.668 70.7813 14.668 70.8985 13.8867 71.3672C11.875 72.5586 9.29687 71.1524 7.8125 68.0664C5.64453 63.5547 6.5625 49.4141 9.6875 39.1016C10.5273 36.3477 11.1133 35.1758 12.2461 33.9649C14.375 31.6797 17.5391 31.3281 19.2188 33.1836C19.5312 33.5352 19.5508 33.6914 19.3555 34.4531C18.8477 36.4844 19.375 37.6953 20.7422 37.6953C21.7578 37.6953 22.207 37.2461 22.6562 35.7813C23.7305 32.168 25.1367 31.0547 33.2031 27.3633C40.1953 24.1406 42.0898 22.3438 45.2344 15.9766C46.7578 12.8516 47.9297 11.2891 49.4141 10.3906C50.7031 9.62892 51.9727 9.5508 53.2812 10.1758Z" fill="black"/>
</svg>
